<svg xmlns="http://www.w3.org/2000/svg" viewBox="0 0 32 32">
  <!-- Roter Kreis-Hintergrund -->
  <circle cx="16" cy="16" r="15" fill="#CC1111"/>
  <!-- Flamme -->
  <path d="
    M16 5
    C16 5 19 9 18.5 12
    C20.5 10 21 7.5 21 7.5
    C23.5 11 24 14.5 22.5 17.5
    C25 16 25.5 13.5 25.5 13.5
    C26.5 16.5 26 20 23.5 22.5
    C21.5 24.5 18.5 25.5 16 25.5
    C13.5 25.5 10.5 24.5 8.5 22.5
    C6 20 5.5 16.5 6.5 13.5
    C6.5 13.5 7 16 9.5 17.5
    C8 14.5 8.5 11 11 7.5
    C11 7.5 11.5 10 13.5 12
    C13 9 16 5 16 5Z
  " fill="#FFFFFF" opacity="0.95"/>
  <!-- Innere Flamme -->
  <path d="
    M16 11
    C16 11 18 14 17.5 16.5
    C19 15.5 19.5 13.5 19.5 13.5
    C20.5 15.5 20 18 18.5 19.5
    C17.5 20.5 16 21 16 21
    C16 21 14.5 20.5 13.5 19.5
    C12 18 11.5 15.5 12.5 13.5
    C12.5 13.5 13 15.5 14.5 16.5
    C14 14 16 11 16 11Z
  " fill="#FF6600" opacity="0.85"/>
</svg>